<?xml version="1.0"?>
<svg width="128" height="128" xmlns="http://www.w3.org/2000/svg" xmlns:svg="http://www.w3.org/2000/svg" xmlns:xlink="http://www.w3.org/1999/xlink">
 <defs>
  <symbol height="16" id="svg_14" viewBox="0 0 16 16" width="16" xmlns="http://www.w3.org/2000/svg">
   <path d="m9,1038.4a3,3 0 0 0 -2.99,2.78a3,3 0 0 0 -2.01,-0.78a3,3 0 0 0 -3,3a3,3 0 0 0 2,2.82l0,2.18c0,0.55 0.45,1 1,1l6,0c0.55,0 1,-0.45 1,-1l0,-1l3,2l0,-6l-3,2l0,-1.77a3,3 0 0 0 1,-2.23a3,3 0 0 0 -3,-3z" fill="none" stroke="#8da5f3" transform="translate(0 -1036.4)"/>
  </symbol>
 </defs>
 <g class="layer">
  <title>Layer 1</title>
  <g id="svg_1" transform="translate(32 32)">
   <path d="m-16,-32c-8.86,0 -16,7.13 -16,15.99l0,95.98c0,8.86 7.13,15.99 16,15.99l96,0c8.86,0 16,-7.13 16,-15.99l0,-95.98c0,-8.85 -7.14,-15.99 -16,-15.99l-96,0z" fill="#363d52" id="svg_2"/>
   <path d="m-16,-32c-8.86,0 -16,7.13 -16,15.99l0,95.98c0,8.86 7.13,15.99 16,15.99l96,0c8.86,0 16,-7.13 16,-15.99l0,-95.98c0,-8.85 -7.14,-15.99 -16,-15.99l-96,0zm0,4l96,0c6.64,0 12,5.35 12,11.99l0,95.98c0,6.64 -5.35,11.99 -12,11.99l-96,0c-6.64,0 -12,-5.35 -12,-11.99l0,-95.98c0,-6.64 5.36,-11.99 12,-11.99z" fill-opacity="0.4" id="svg_3"/>
  </g>
  <g id="svg_4" stroke-width="9.93" transform="matrix(.10073078 0 0 .10073078 12.425923 2.256365)">
   <path d="m0,0s-0.33,1.99 -0.52,1.98l-36.18,-3.5c-2.88,-0.27 -5.11,-2.57 -5.31,-5.45l-1,-14.25l-27.99,-2l-1.9,12.91c-0.43,2.88 -2.94,5.04 -5.84,5.04l-38.19,0c-2.9,0 -5.41,-2.16 -5.83,-5.04l-1.91,-12.91l-27.99,2l-0.99,14.25c-0.2,2.88 -2.44,5.18 -5.32,5.46l-36.2,3.49c-0.19,0.01 -0.32,-1.98 -0.51,-1.98l-0.05,-7.83l30.66,-4.95l1,-14.37c0.21,-2.91 2.55,-5.26 5.47,-5.47l38.55,-2.75c0.14,-0.01 0.29,-0.02 0.43,-0.02c2.9,0 5.4,2.17 5.83,5.04l1.96,13.29l28,0l1.96,-13.29c0.42,-2.87 2.93,-5.04 5.83,-5.04c0.14,0 0.28,0.01 0.42,0.02l38.56,2.75c2.91,0.21 5.26,2.56 5.46,5.47l1.01,14.37l30.64,4.97l-0.05,7.81z" fill="#fff" id="svg_5" transform="matrix(4.162611 0 0 -4.162611 919.24059 771.67186)"/>
   <path d="m0,0l0,-47.51l0,-6.04l0,-5.49c0.11,0 0.22,-0.01 0.32,-0.02l36.2,-3.49c1.89,-0.18 3.38,-1.71 3.51,-3.61l1.12,-15.97l31.57,-2.26l2.18,14.75c0.28,1.91 1.92,3.33 3.85,3.33l38.19,0c1.94,0 3.57,-1.42 3.86,-3.33l2.17,-14.75l31.58,2.26l1.11,15.97c0.14,1.91 1.62,3.43 3.52,3.61l36.18,3.49c0.11,0.01 0.21,0.02 0.32,0.02l0,4.71l0.01,0.01l0,54.32c5.1,6.42 9.93,13.49 13.63,19.45c-5.66,9.62 -12.58,18.22 -19.98,26.18c-6.86,-3.45 -13.53,-7.37 -19.83,-11.53c-3.15,3.13 -6.7,5.69 -10.18,8.37c-3.43,2.75 -7.29,4.77 -10.95,7.12c1.09,8.11 1.63,16.11 1.85,24.45c-9.45,4.75 -19.52,7.9 -29.71,10.17c-4.07,-6.84 -7.79,-14.25 -11.03,-21.48c-3.84,0.64 -7.7,0.88 -11.57,0.92l0,0.01c-0.02,0 -0.05,-0.01 -0.07,-0.01c-0.03,0 -0.05,0.01 -0.07,0.01l0,-0.01c-3.88,-0.04 -7.73,-0.28 -11.58,-0.92c-3.23,7.23 -6.95,14.64 -11.03,21.48c-10.18,-2.27 -20.25,-5.42 -29.7,-10.17c0.22,-8.34 0.76,-16.34 1.85,-24.45c-3.67,-2.35 -7.52,-4.37 -10.95,-7.12c-3.48,-2.68 -7.04,-5.24 -10.19,-8.37c-6.3,4.16 -12.96,8.08 -19.83,11.53c-7.4,-7.96 -14.32,-16.56 -19.97,-26.18c4.44,-6.97 9.21,-13.98 13.62,-19.45z" fill="#478cbf" id="svg_6" transform="matrix(4.162611 0 0 -4.162611 104.69892 525.90697)"/>
   <path d="m0,0l-1.12,-16.06c-0.14,-1.94 -1.68,-3.48 -3.61,-3.62l-38.56,-2.75c-0.09,-0.01 -0.19,-0.01 -0.28,-0.01c-1.91,0 -3.57,1.41 -3.85,3.33l-2.21,14.99l-31.46,0l-2.21,-14.99c-0.3,-2.02 -2.1,-3.47 -4.13,-3.32l-38.56,2.75c-1.94,0.14 -3.48,1.68 -3.61,3.62l-1.12,16.06l-32.55,3.14c0.02,-3.5 0.06,-7.33 0.06,-8.1c0,-34.37 43.61,-50.89 97.78,-51.08l0.07,0l0.07,0c54.17,0.19 97.76,16.71 97.76,51.09c0,0.77 0.05,4.59 0.07,8.09l-32.54,-3.14z" fill="#478cbf" id="svg_7" transform="matrix(4.162611 0 0 -4.162611 784.07144 817.24284)"/>
   <path d="m0,0c0,-12.05 -9.77,-21.82 -21.81,-21.82c-12.04,0 -21.81,9.77 -21.81,21.82c0,12.04 9.77,21.8 21.81,21.8c12.05,0 21.81,-9.76 21.81,-21.8" fill="#fff" id="svg_8" transform="matrix(4.162611 0 0 -4.162611 389.21484 625.67104)"/>
   <path d="m0,0c0,-7.99 -6.48,-14.47 -14.48,-14.47c-8,0 -14.48,6.48 -14.48,14.47s6.49,14.48 14.48,14.48c8,0 14.48,-6.49 14.48,-14.48" fill="#414042" id="svg_9" transform="matrix(4.162611 0 0 -4.162611 367.36686 631.05679)"/>
   <path d="m0,0c-3.88,0 -7.02,2.86 -7.02,6.38l0,20.08c0,3.52 3.14,6.38 7.02,6.38s7.03,-2.86 7.03,-6.38l0,-20.08c0,-3.52 -3.15,-6.38 -7.03,-6.38" fill="#fff" id="svg_10" transform="matrix(4.162611 0 0 -4.162611 511.99336 724.73954)"/>
   <path d="m0,0c0,-12.05 9.77,-21.82 21.82,-21.82c12.04,0 21.8,9.77 21.8,21.82c0,12.04 -9.76,21.8 -21.8,21.8c-12.05,0 -21.82,-9.76 -21.82,-21.8" fill="#fff" id="svg_11" transform="matrix(4.162611 0 0 -4.162611 634.78706 625.67104)"/>
   <path d="m0,0c0,-7.99 6.48,-14.47 14.47,-14.47c8,0 14.48,6.48 14.48,14.47s-6.48,14.48 -14.48,14.48c-7.99,0 -14.47,-6.49 -14.47,-14.48" fill="#414042" id="svg_12" transform="matrix(4.162611 0 0 -4.162611 656.64056 631.05679)"/>
  </g>
  <rect fill="#363d52" height="103" id="svg_13" stroke="#000000" stroke-opacity="0" width="107" x="11.75" y="12.5"/>
  <use id="svg_15" transform="matrix(7.75313, 0, 0, 7.75313, -9.14646, -8.74753)" x="1.74" xlink:href="#svg_14" y="1.55"/>
 </g>
</svg>